<?xml version="1.0" encoding="iso-8859-1"?>
<!-- Uploaded to: SVG Repo, www.svgrepo.com, Generator: SVG Repo Mixer Tools -->
<svg fill="#000000" height="800px" width="800px" version="1.1" id="Capa_1" xmlns="http://www.w3.org/2000/svg" xmlns:xlink="http://www.w3.org/1999/xlink" 
	 viewBox="0 0 611.999 611.999" xml:space="preserve">
<g>
	<g>
		<g>
			<path d="M597.189,269.938l-94.897-15.942l-93.764-105.865c-3.367-3.803-8.206-5.981-13.287-5.981H183.426H86.175
				c-6.148,0-11.86,3.18-15.095,8.41L2.657,261.12C0.92,263.925,0,267.162,0,270.461V388.92c0,9.803,7.948,17.752,17.752,17.752
				h42.403c8.115,36.11,40.419,63.176,78.946,63.176c38.525,0,70.827-27.067,78.943-63.176h175.913
				c8.115,36.11,40.417,63.176,78.943,63.176c38.527,0,70.829-27.067,78.946-63.176h42.403c9.803,0,17.752-7.948,17.752-17.752
				V287.443C612,278.773,605.74,271.373,597.189,269.938z M314.982,177.652h72.271l66.477,75.057H314.983v-75.057H314.982z
				 M193.728,177.652h85.751v75.057H150.837L193.728,177.652z M139.1,434.345c-24.99,0-45.329-20.286-45.423-45.255
				c0.001-0.058,0.009-0.112,0.009-0.17c0-0.058-0.007-0.112-0.009-0.17c0.093-24.969,20.434-45.255,45.423-45.255
				c25.048,0,45.425,20.377,45.425,45.425S164.148,434.345,139.1,434.345z M472.9,434.345c-25.048,0-45.425-20.377-45.425-45.425
				c0-25.048,20.377-45.425,45.425-45.425c25.049,0,45.428,20.377,45.428,45.425C518.328,413.967,497.947,434.345,472.9,434.345z
				 M576.497,371.168h-24.651c-8.117-36.11-40.419-63.176-78.946-63.176c-38.525,0-70.827,27.067-78.943,63.176H218.043
				c-8.115-36.11-40.417-63.176-78.943-63.176c-38.527,0-70.83,27.067-78.946,63.176H35.503v-95.66l60.561-97.856h56.771
				l-48.002,84.002c-3.138,5.494-3.117,12.244,0.061,17.718c3.176,5.472,9.027,8.842,15.354,8.842h371.436l84.813,14.25V371.168
				L576.497,371.168z"/>
		</g>
	</g>
</g>
</svg>