<?xml version="1.0" encoding="iso-8859-1"?>
<!-- Uploaded to: SVG Repo, www.svgrepo.com, Generator: SVG Repo Mixer Tools -->
<!DOCTYPE svg PUBLIC "-//W3C//DTD SVG 1.1//EN" "http://www.w3.org/Graphics/SVG/1.1/DTD/svg11.dtd">
<svg fill="#000000" version="1.1" id="Capa_1" xmlns="http://www.w3.org/2000/svg" xmlns:xlink="http://www.w3.org/1999/xlink" 
	 width="800px" height="800px" viewBox="0 0 364.329 364.329"
	 xml:space="preserve">
<g>
	<g>
		<g>
			<path d="M321.905,126.014H45.331l-5.375,41.571l-0.093,0.793h288.882L321.905,126.014z M100.911,162.145l-9.034-0.075
				l3.125-29.144l9.037,0.114L100.911,162.145z M184.726,160.451h-9.064v-28.535h9.064V160.451z M256.411,162.784l-3.141-29.09
				l9.037-0.105l3.135,29.138L256.411,162.784z"/>
		</g>
		<g>
			<path d="M314.363,79.23H51.362l-4.771,36.908l-0.093,0.793H320.44L314.363,79.23z M105.835,112.443l-9.038-0.075l3.123-29.126
				l9.04,0.096L105.835,112.443z M184.726,112.425h-9.064V83.893h9.064V112.425z M251.48,113.095l-3.122-29.097l9.043-0.111
				l3.123,29.144L251.48,113.095z"/>
		</g>
		<g>
			<path d="M38.683,177.448l-4.66,36.074l-0.093,0.805h302.218l-5.938-36.872H38.683V177.448z M95.228,210.52l-9.031-0.061
				l3.116-29.144l9.046,0.099L95.228,210.52z M184.726,211.895h-9.064v-28.55h9.064V211.895z M262.092,211.186l-3.129-29.102
				l9.037-0.105l3.129,29.129L262.092,211.186z"/>
		</g>
		<g>
			<path d="M185.834,237.854h178.495L337.193,54.599H27.142L0,237.854h173.079v59.135l-66.242,0.018v12.58l144.278,0.145v-12.742
				h-65.281V237.854z M9.752,229.435l0.111-0.745L34.417,63.005h295.5l24.68,166.429H9.752z"/>
		</g>
	</g>
</g>
</svg>